<svg width="32.000000" height="26.400024" viewBox="0 0 32 26.4" fill="none" xmlns="http://www.w3.org/2000/svg" xmlns:xlink="http://www.w3.org/1999/xlink">
	<desc>
			Created with Pixso.
	</desc>
	<defs/>
	<path id="Path" d="M32 3.12537C30.8228 3.65601 29.5571 4.01331 28.2295 4.17444C29.5854 3.3501 30.6265 2.04395 31.1162 0.487305C29.8481 1.25073 28.4429 1.80566 26.9468 2.10486C25.7505 0.809448 24.0425 0 22.1548 0C17.916 0 14.8013 4.01465 15.7588 8.18237C10.3042 7.90479 5.4668 5.25183 2.22803 1.2196C0.507812 4.21497 1.33594 8.13354 4.25879 10.1179C3.18408 10.0828 2.1709 9.78357 1.28662 9.28418C1.21484 12.3716 3.39453 15.2601 6.55176 15.9031C5.62793 16.1576 4.61621 16.2172 3.58643 16.0167C4.42139 18.6643 6.84521 20.5905 9.72021 20.6447C6.95996 22.8414 3.48291 23.8228 0 23.4059C2.90527 25.2969 6.35742 26.4 10.064 26.4C22.2534 26.4 29.1401 15.9491 28.7241 6.57568C30.0068 5.63489 31.1201 4.4613 32 3.12537Z" fill="#FFFFFF" fill-opacity="1.000000" fill-rule="nonzero"/>
</svg>
