<svg width="32.000000" height="32.000000" viewBox="0 0 32 32" fill="none" xmlns="http://www.w3.org/2000/svg" xmlns:xlink="http://www.w3.org/1999/xlink">
	<desc>
			Created with Pixso.
	</desc>
	<defs/>
	<path id="Shape" d="M16 0C7.16406 0 0 7.16394 0 16C0 24.8361 7.16406 32 16 32C24.8359 32 32 24.8361 32 16C32 7.16394 24.8359 0 16 0ZM21.9214 22.5227C19.1187 22.7147 12.876 22.7147 10.0771 22.5227C7.04248 22.3147 6.68945 20.8293 6.6665 16C6.68945 11.1614 7.04688 9.6853 10.0771 9.47729C12.876 9.28528 19.1201 9.28528 21.9214 9.47729C24.9575 9.6853 25.3096 11.1707 25.3335 16C25.3096 20.8386 24.9531 22.3147 21.9214 22.5227ZM19.8892 15.9946L13.3335 12.8773L13.3335 19.1227L19.8892 15.9946Z" clip-rule="evenodd" fill="#FFFFFF" fill-opacity="1.000000" fill-rule="evenodd"/>
</svg>
