<svg width="32.000000" height="32.000000" viewBox="0 0 32 32" fill="none" xmlns="http://www.w3.org/2000/svg" xmlns:xlink="http://www.w3.org/1999/xlink">
	<desc>
			Created with Pixso.
	</desc>
	<defs/>
	<path id="Path" d="M30.2334 0L1.7666 0C0.790527 0 0 0.790649 0 1.76672L0 30.2346C0 31.2094 0.790527 32 1.7666 32L17.0933 32L17.0933 19.608L12.9229 19.608L12.9229 14.7787L17.0933 14.7787L17.0933 11.2173C17.0933 7.08398 19.6172 4.83337 23.3052 4.83337C25.0718 4.83337 26.5894 4.96533 27.0322 5.02405L27.0322 9.34399L24.4746 9.34534C22.4692 9.34534 22.0815 10.2987 22.0815 11.696L22.0815 14.78L26.8638 14.78L26.2412 19.6094L22.0815 19.6094L22.0815 32L30.2358 32C31.2095 32 32 31.2094 32 30.2333L32 1.76672C32 0.790649 31.2095 0 30.2334 0Z" fill="#FFFFFF" fill-opacity="1.000000" fill-rule="nonzero"/>
</svg>
