<svg width="32.000000" height="32.000000" viewBox="0 0 32 32" fill="none" xmlns="http://www.w3.org/2000/svg" xmlns:xlink="http://www.w3.org/1999/xlink">
	<desc>
			Created with Pixso.
	</desc>
	<defs/>
	<path id="Path" d="M16 0C7.16406 0 0 7.16272 0 16C0 22.7787 4.21729 28.568 10.1694 30.8987C10.0293 29.6333 9.90283 27.692 10.2251 26.3107C10.5161 25.0613 12.1016 18.3573 12.1016 18.3573C12.1016 18.3573 11.6226 17.3987 11.6226 15.9813C11.6226 13.7573 12.9121 12.0959 14.5171 12.0959C15.8813 12.0959 16.5415 13.1213 16.5415 14.3494C16.5415 15.7213 15.668 17.7733 15.2158 19.676C14.8389 21.2679 16.0146 22.568 17.5854 22.568C20.4292 22.568 22.6147 19.5693 22.6147 15.2413C22.6147 11.4106 19.8628 8.73206 15.9321 8.73206C11.3799 8.73206 8.70801 12.1466 8.70801 15.6747C8.70801 17.0493 9.2373 18.5254 9.89844 19.3253C10.0293 19.484 10.0479 19.624 10.0093 19.7853L9.56543 21.5986C9.49463 21.892 9.3335 21.9547 9.0293 21.8134C7.03076 20.8827 5.78125 17.9613 5.78125 15.6146C5.78125 10.568 9.44824 5.93201 16.3535 5.93201C21.9038 5.93201 26.2173 9.88794 26.2173 15.1733C26.2173 20.688 22.7412 25.1254 17.9146 25.1254C16.2935 25.1254 14.7695 24.2841 14.248 23.288L13.2505 27.092C12.8892 28.4827 11.9146 30.2253 11.2612 31.2866C12.7598 31.7494 14.3506 32 16 32C24.8359 32 32 24.8361 32 16C32 7.16272 24.8359 0 16 0Z" fill="#FFFFFF" fill-opacity="1.000000" fill-rule="nonzero"/>
</svg>
