<svg width="32.000000" height="32.000000" viewBox="0 0 32 32" fill="none" xmlns="http://www.w3.org/2000/svg" xmlns:xlink="http://www.w3.org/1999/xlink">
	<desc>
			Created with Pixso.
	</desc>
	<defs/>
	<path id="Shape" d="M16 0C11.6548 0 11.1108 0.0186768 9.40381 0.0959473C3.59326 0.362671 0.36377 3.58667 0.097168 9.40271C0.0185547 11.1107 0 11.6547 0 16C0 20.3453 0.0185547 20.8906 0.0961914 22.5973C0.362793 28.408 3.58643 31.6373 9.40283 31.9041C11.1108 31.9813 11.6548 32 16 32C20.3452 32 20.8906 31.9813 22.5972 31.9041C28.4028 31.6373 31.6401 28.4133 31.9028 22.5973C31.9814 20.8906 32 20.3453 32 16C32 11.6547 31.9814 11.1107 31.9038 9.40405C31.6426 3.59863 28.4146 0.364014 22.5986 0.09729C20.8906 0.0186768 20.3452 0 16 0ZM22.4668 2.97729C20.7788 2.90002 20.272 2.88403 16 2.88403C11.728 2.88403 11.2227 2.90002 9.53467 2.97595C5.19482 3.17334 3.1748 5.23206 2.97607 9.53467C2.8999 11.2227 2.88281 11.728 2.88281 16C2.88281 20.2733 2.89844 20.7787 2.97607 22.4653C3.17334 26.76 5.18799 28.8267 9.53467 29.0254C11.2212 29.1027 11.728 29.1187 16 29.1187C20.2749 29.1187 20.7788 29.1027 22.4668 29.0254C26.8066 28.828 28.8267 26.7667 29.0254 22.4667C29.1016 20.78 29.1172 20.2747 29.1172 16.0013C29.1172 11.7294 29.1025 11.2227 29.0254 9.53601C28.8281 5.23206 26.8027 3.17468 22.4668 2.97729ZM22.6201 7.45996C22.6201 6.40002 23.48 5.54004 24.5415 5.54004C25.6016 5.54004 26.46 6.40002 26.46 7.45996C26.46 8.52002 25.6016 9.38 24.5415 9.38C23.48 9.38 22.6201 8.52002 22.6201 7.45996ZM7.78418 16C7.78418 11.4626 11.4629 7.78406 16 7.78406C20.5371 7.78406 24.2158 11.4626 24.2158 16C24.2158 20.5387 20.5371 24.2173 16 24.2173C11.4629 24.2173 7.78418 20.5374 7.78418 16ZM16 21.3334C13.0547 21.3334 10.6665 18.9467 10.6665 16C10.6665 13.0547 13.0547 10.6666 16 10.6666C18.9453 10.6666 21.3335 13.0547 21.3335 16C21.3335 18.9467 18.9453 21.3334 16 21.3334Z" clip-rule="evenodd" fill="#FFFFFF" fill-opacity="1.000000" fill-rule="evenodd"/>
</svg>
