<svg width="110.000000" height="18.000000" viewBox="0 0 110 18" fill="none" xmlns="http://www.w3.org/2000/svg" xmlns:xlink="http://www.w3.org/1999/xlink">
	<desc>
			Created with Pixso.
	</desc>
	<defs/>
	<path id="manage" d="M30.123 6.41504L30.123 12.6066L27.2832 12.6066L27.2832 6.14197Q27.2832 3.74988 26.1621 2.97021Q25.6201 2.59326 24.8154 2.59326Q24.1919 2.59326 23.6753 2.82812Q23.1128 3.08362 22.6768 3.61694Q21.8398 4.64062 21.8398 6.41504L21.8398 12.5942L19 12.5942L19 0.198486L21.8398 0.198486L21.8398 1.91089L21.877 1.91089Q22.4897 1.16711 23.269 0.704224L23.269 0.704102Q23.4517 0.595581 23.644 0.502563Q24.2939 0.187134 24.978 0.074707L24.978 0.074707Q25.3564 0.0124512 25.7456 0.0124512Q27.2935 0.0124512 28.3105 0.747192Q28.9966 1.24255 29.4409 2.07214L29.4902 2.07214Q29.9258 1.51221 30.4727 1.10046Q30.9072 0.773315 31.4126 0.539795Q31.4429 0.525757 31.4736 0.512085L31.4766 0.510742Q32.5918 0.0124512 33.9297 0.0124512Q35.4756 0.0124512 36.4951 0.744873Q36.8574 1.00537 37.1538 1.35864Q38.2822 2.70496 38.2822 5.42236L38.2822 12.6066L35.4424 12.6066L35.4424 6.14197Q35.4424 3.72632 34.3164 2.95508Q33.7881 2.59326 33.0122 2.59326Q32.4888 2.59326 32.0396 2.77563Q31.4238 3.02539 30.9473 3.61694Q30.123 4.64062 30.123 6.41504ZM48.5977 12.124Q47.4824 12.7927 45.9658 12.7927Q44.7949 12.7927 43.7642 12.4119Q43.6709 12.3774 43.5791 12.3398C42.8394 12.038 42.2046 11.614 41.6758 11.068Q40.8818 10.249 40.4233 9.05786C40.1172 8.26379 39.9644 7.39526 39.9644 6.45215Q39.9644 5.08301 40.418 3.8855Q40.4204 3.87842 40.4233 3.87134Q40.8818 2.66772 41.6758 1.82397C42.2046 1.26147 42.8369 0.81897 43.5728 0.496338C44.3086 0.173706 45.0981 0.0124512 45.9414 0.0124512Q47.4805 0.0124512 48.6128 0.691406Q49.2593 1.07886 49.7729 1.6875L49.8223 1.6875L49.8223 0.198486L52.6621 0.198486L52.6621 12.5942L49.9463 12.5942L49.9463 10.9315L49.9092 10.9315Q49.3428 11.6771 48.5977 12.124ZM46.4126 10.2119C45.3628 10.2119 44.5068 9.8623 43.8457 9.16333Q43.5854 8.88831 43.3936 8.5719Q42.8535 7.68201 42.8535 6.4646Q42.8535 5.07861 43.4956 4.12476Q43.6641 3.87463 43.8765 3.65417Q44.3311 3.18311 44.8843 2.92126Q45.5767 2.59326 46.4248 2.59326C47.4336 2.59326 48.2705 2.9635 48.936 3.70386C49.6011 4.44421 49.9341 5.36438 49.9341 6.4646Q49.9341 7.62805 49.4258 8.49243Q49.2129 8.85413 48.9111 9.16333C48.229 9.8623 47.396 10.2119 46.4126 10.2119ZM66.769 5.29822L66.769 12.6066L63.9297 12.6066L63.9297 6.03027C63.9297 5.38513 63.8716 4.83911 63.7559 4.39246Q63.5825 3.72241 63.2227 3.33154C62.9829 3.07104 62.7041 2.88281 62.3857 2.76697Q61.9082 2.59326 61.2388 2.59326C60.2632 2.59326 59.4844 2.92419 58.9014 3.58594C58.3184 4.24768 58.0273 5.17419 58.0273 6.36536L58.0273 12.5942L55.1875 12.5942L55.1875 0.198486L58.0273 0.198486L58.0273 1.89844L58.0645 1.89844C58.585 1.28625 59.2051 0.81897 59.9243 0.496338Q60.2959 0.329712 60.6836 0.220459Q61.4214 0.0124512 62.2183 0.0124512Q63.8765 0.0124512 64.9761 0.795898Q65.291 1.02039 65.5601 1.30908C66.3662 2.17346 66.769 3.50317 66.769 5.29822ZM77.0723 12.124Q75.957 12.7927 74.4409 12.7927C73.5894 12.7927 72.7935 12.6417 72.0537 12.3398C71.314 12.038 70.6792 11.614 70.1504 11.068Q69.3569 10.249 68.8979 9.05786C68.5918 8.26379 68.439 7.39526 68.439 6.45215C68.439 5.53406 68.5918 4.67371 68.8979 3.87134Q69.3569 2.66772 70.1504 1.82397Q70.353 1.60852 70.5757 1.41663Q71.2256 0.856689 72.0474 0.496338Q72.2861 0.391724 72.5322 0.309692Q73.4248 0.0124512 74.416 0.0124512Q75.9556 0.0124512 77.0879 0.691406Q77.7339 1.07886 78.2476 1.6875L78.2974 1.6875L78.2974 0.198486L81.1367 0.198486L81.1367 12.5942L78.4214 12.5942L78.4214 10.9315L78.3838 10.9315Q77.8179 11.6771 77.0723 12.124ZM74.8872 10.2119Q73.8828 10.2119 73.1152 9.78528Q72.6797 9.54309 72.3203 9.16333C71.6592 8.46436 71.3281 7.56482 71.3281 6.4646C71.3281 5.29822 71.6694 4.36145 72.3511 3.65417C73.0332 2.9469 73.8828 2.59326 74.8994 2.59326C75.9082 2.59326 76.7451 2.9635 77.4106 3.70386C78.0762 4.44421 78.4087 5.36438 78.4087 6.4646C78.4087 7.56482 78.0679 8.46436 77.3857 9.16333Q76.8867 9.67493 76.2798 9.93689Q75.6426 10.2119 74.8872 10.2119ZM91.623 17.4893C90.9121 17.7002 90.106 17.8057 89.2051 17.8057C88.271 17.8057 87.3696 17.694 86.502 17.4706C85.6338 17.2472 84.8525 16.9287 84.1582 16.5151L84.8276 14.0088C85.6216 14.4307 86.3223 14.7408 86.9297 14.9393C87.5371 15.1378 88.2422 15.2372 89.0439 15.2372Q90.8047 15.2372 91.772 14.3685C92.4165 13.7896 92.7393 13.0615 92.7393 12.1847L92.7393 10.8695L92.6895 10.8695C91.7222 11.8787 90.4697 12.3833 88.9321 12.3833Q87.4243 12.3833 86.1821 11.8087Q86.0044 11.7266 85.832 11.6326C84.9146 11.1321 84.1934 10.4146 83.6685 9.47974C83.1436 8.54504 82.8809 7.47375 82.8809 6.26611Q82.8809 4.62476 83.5142 3.28186Q83.5703 3.16284 83.6313 3.04614C84.1313 2.09082 84.832 1.34424 85.7329 0.806519C86.6343 0.268799 87.6509 0 88.7837 0Q89.3911 0 89.9727 0.121948Q90.4243 0.216553 90.8604 0.384644C91.5259 0.641113 92.1147 1.01331 92.6274 1.50134L92.6772 1.50134L92.6772 0.198486L95.5166 0.198486L95.5166 11.3162Q95.5166 12.4701 95.3062 13.438Q95.1074 14.3503 94.6714 15.1305Q94.645 15.1779 94.6177 15.2247C94.2993 15.7706 93.8984 16.2318 93.415 16.6083C92.9312 16.9846 92.334 17.2783 91.623 17.4893ZM89.3042 9.76514C88.2793 9.76514 87.4341 9.44043 86.7686 8.79114C86.103 8.14172 85.77 7.27112 85.77 6.1792C85.77 5.12866 86.0967 4.27246 86.75 3.61072Q87.0439 3.31262 87.3921 3.10413Q88.2021 2.61816 89.3042 2.61816C90.3047 2.61816 91.1372 2.94482 91.8027 3.59839Q92.1201 3.90991 92.3364 4.28027Q92.8013 5.07544 92.8013 6.14197C92.8013 7.1925 92.4766 8.05908 91.8276 8.74146C91.1787 9.42395 90.3374 9.76514 89.3042 9.76514ZM106.691 12.1599Q105.371 12.7927 103.635 12.7927Q102.064 12.7927 100.769 12.1967Q100.581 12.1101 100.398 12.011C99.4395 11.4899 98.6831 10.7393 98.1289 9.75891C97.5752 8.77869 97.2983 7.65576 97.2983 6.39014C97.2983 5.45544 97.4512 4.59094 97.7568 3.79688C98.063 3.00281 98.4844 2.32861 99.022 1.77441Q99.2124 1.57764 99.4204 1.40137Q100.092 0.832886 100.944 0.477661Q101.112 0.407471 101.284 0.347778Q102.252 0.0124512 103.337 0.0124512C104.536 0.0124512 105.594 0.28125 106.511 0.81897C107.429 1.35657 108.132 2.09692 108.62 3.04004C109.107 3.98303 109.351 5.0542 109.351 6.25366C109.351 6.70862 109.326 7.08496 109.277 7.38281L100.25 7.38281Q100.445 8.32422 100.986 8.97961Q101.201 9.23987 101.471 9.45496C102.103 9.95959 102.874 10.2119 103.783 10.2119Q104.812 10.2119 105.625 9.79236Q106.33 9.4281 106.871 8.74768L108.855 10.4476C108.293 11.1672 107.572 11.738 106.691 12.1599ZM106.499 5.08728L100.299 5.08728C100.498 4.29321 100.882 3.67896 101.452 3.24475Q101.693 3.06165 101.958 2.92993Q102.639 2.59326 103.486 2.59326Q104.433 2.59326 105.117 3.01746Q105.293 3.12634 105.451 3.26331C105.968 3.70996 106.317 4.31799 106.499 5.08728Z" clip-rule="evenodd" fill="#242D52" fill-opacity="1.000000" fill-rule="evenodd"/>
	<mask id="mask_0_390" fill="white">
		<path id="Combined Shape" d="M0 2.18481C0 0.978149 0.935547 0 2.08936 0C3.24316 0 4.17871 0.978149 4.17871 2.18481C4.17871 3.3916 3.24316 4.36975 2.08936 4.36975C0.935547 4.36975 0 3.3916 0 2.18481ZM9.61084 0C8.45703 0 7.52148 0.978149 7.52148 2.18481C7.52148 3.3916 8.45703 4.36975 9.61084 4.36975C10.7646 4.36975 11.7002 3.3916 11.7002 2.18481C11.7002 0.978149 10.7646 0 9.61084 0ZM0 10.0504C0 8.84375 0.935547 7.8656 2.08936 7.8656C3.24316 7.8656 4.17871 8.84375 4.17871 10.0504C4.17871 11.2571 3.24316 12.2354 2.08936 12.2354C0.935547 12.2354 0 11.2571 0 10.0504Z" clip-rule="evenodd" fill="" fill-opacity="1.000000" fill-rule="evenodd"/>
	</mask>
	<path id="Combined Shape" d="M0 2.18481C0 0.978149 0.935547 0 2.08936 0C3.24316 0 4.17871 0.978149 4.17871 2.18481C4.17871 3.3916 3.24316 4.36975 2.08936 4.36975C0.935547 4.36975 0 3.3916 0 2.18481ZM9.61084 0C8.45703 0 7.52148 0.978149 7.52148 2.18481C7.52148 3.3916 8.45703 4.36975 9.61084 4.36975C10.7646 4.36975 11.7002 3.3916 11.7002 2.18481C11.7002 0.978149 10.7646 0 9.61084 0ZM0 10.0504C0 8.84375 0.935547 7.8656 2.08936 7.8656C3.24316 7.8656 4.17871 8.84375 4.17871 10.0504C4.17871 11.2571 3.24316 12.2354 2.08936 12.2354C0.935547 12.2354 0 11.2571 0 10.0504Z" clip-rule="evenodd" fill="#F3603C" fill-opacity="1.000000" fill-rule="evenodd" mask="url(#mask_0_390)"/>
	<path id="Combined Shape" d="" fill="#979797" fill-opacity="0.000000" fill-rule="nonzero"/>
	<g opacity="0.500000">
		<ellipse id="Oval Copy 3" cx="9.610840" cy="10.137695" rx="2.089286" ry="2.184874" fill="#F3603C" fill-opacity="1.000000"/>
		<ellipse id="Oval Copy 3" cx="9.610840" cy="10.137695" rx="2.089286" ry="2.184874" stroke="#979797" stroke-opacity="0" stroke-width="0.000000"/>
	</g>
</svg>
